<mxfile host="65bd71144e">
    <diagram id="bT-GzrtpJv4uaIVxJb1f" name="第 1 页">
        <mxGraphModel dx="1772" dy="2221" grid="1" gridSize="10" guides="1" tooltips="1" connect="1" arrows="1" fold="1" page="1" pageScale="1" pageWidth="827" pageHeight="1169" background="none" math="0" shadow="0">
            <root>
                <mxCell id="0"/>
                <mxCell id="1" parent="0"/>
                <mxCell id="26" value="注册" style="swimlane;childLayout=stackLayout;resizeParent=1;resizeParentMax=0;startSize=20;html=1;rounded=0;shadow=0;glass=0;swimlaneFillColor=default;" parent="1" vertex="1">
                    <mxGeometry x="120" y="420" width="350" height="330" as="geometry"/>
                </mxCell>
                <mxCell id="27" value="用户" style="swimlane;startSize=20;html=1;rounded=0;swimlaneFillColor=default;" parent="26" vertex="1">
                    <mxGeometry y="20" width="170" height="310" as="geometry"/>
                </mxCell>
                <mxCell id="36" value="" style="edgeStyle=none;html=1;" parent="27" source="32" target="35" edge="1">
                    <mxGeometry relative="1" as="geometry"/>
                </mxCell>
                <mxCell id="32" value="注册界面" style="rounded=0;whiteSpace=wrap;html=1;gradientColor=none;" parent="27" vertex="1">
                    <mxGeometry x="47.5" y="30" width="75" height="40" as="geometry"/>
                </mxCell>
                <mxCell id="35" value="输入用户ID、用户名、密码" style="rounded=0;whiteSpace=wrap;html=1;gradientColor=none;" parent="27" vertex="1">
                    <mxGeometry x="47.5" y="100" width="75" height="40" as="geometry"/>
                </mxCell>
                <mxCell id="44" value="跳转至登陆页面" style="rounded=0;whiteSpace=wrap;html=1;gradientColor=none;" parent="27" vertex="1">
                    <mxGeometry x="47.5" y="240" width="75" height="40" as="geometry"/>
                </mxCell>
                <mxCell id="28" value="系统" style="swimlane;startSize=20;html=1;rounded=0;swimlaneFillColor=default;" parent="26" vertex="1">
                    <mxGeometry x="170" y="20" width="180" height="310" as="geometry"/>
                </mxCell>
                <mxCell id="40" value="&lt;div style=&quot;line-height: 120%;&quot;&gt;&lt;span style=&quot;background-color: initial;&quot;&gt;判断格式及用户ID占用情况&lt;/span&gt;&lt;br&gt;&lt;/div&gt;" style="rhombus;whiteSpace=wrap;html=1;gradientColor=none;align=center;spacingLeft=5;spacingRight=5;" parent="28" vertex="1">
                    <mxGeometry x="35" y="150" width="110" height="60" as="geometry"/>
                </mxCell>
                <mxCell id="38" value="" style="edgeStyle=none;html=1;" parent="26" source="35" target="40" edge="1">
                    <mxGeometry relative="1" as="geometry">
                        <mxPoint x="260" y="200" as="targetPoint"/>
                        <Array as="points">
                            <mxPoint x="85" y="200"/>
                        </Array>
                    </mxGeometry>
                </mxCell>
                <mxCell id="41" style="edgeStyle=none;html=1;entryX=1;entryY=0.5;entryDx=0;entryDy=0;" parent="26" source="40" target="35" edge="1">
                    <mxGeometry relative="1" as="geometry">
                        <Array as="points">
                            <mxPoint x="260" y="140"/>
                        </Array>
                    </mxGeometry>
                </mxCell>
                <mxCell id="42" value="格式错误或ID占用" style="edgeLabel;html=1;align=center;verticalAlign=middle;resizable=0;points=[];" parent="41" vertex="1" connectable="0">
                    <mxGeometry x="-0.1238" relative="1" as="geometry">
                        <mxPoint as="offset"/>
                    </mxGeometry>
                </mxCell>
                <mxCell id="43" style="edgeStyle=none;html=1;" parent="26" source="40" target="44" edge="1">
                    <mxGeometry relative="1" as="geometry">
                        <mxPoint x="110" y="280" as="targetPoint"/>
                        <Array as="points">
                            <mxPoint x="260" y="280"/>
                        </Array>
                    </mxGeometry>
                </mxCell>
                <mxCell id="45" value="注册成功" style="edgeLabel;html=1;align=center;verticalAlign=middle;resizable=0;points=[];" parent="43" vertex="1" connectable="0">
                    <mxGeometry x="0.0996" relative="1" as="geometry">
                        <mxPoint as="offset"/>
                    </mxGeometry>
                </mxCell>
                <mxCell id="46" value="登录" style="swimlane;childLayout=stackLayout;resizeParent=1;resizeParentMax=0;startSize=20;html=1;rounded=0;shadow=0;glass=0;swimlaneFillColor=default;" parent="1" vertex="1">
                    <mxGeometry x="520" y="420" width="350" height="330" as="geometry"/>
                </mxCell>
                <mxCell id="47" value="用户" style="swimlane;startSize=20;html=1;rounded=0;swimlaneFillColor=default;" parent="46" vertex="1">
                    <mxGeometry y="20" width="170" height="310" as="geometry"/>
                </mxCell>
                <mxCell id="48" value="" style="edgeStyle=none;html=1;" parent="47" source="49" target="50" edge="1">
                    <mxGeometry relative="1" as="geometry"/>
                </mxCell>
                <mxCell id="49" value="登录界面" style="rounded=0;whiteSpace=wrap;html=1;gradientColor=none;" parent="47" vertex="1">
                    <mxGeometry x="47.5" y="30" width="75" height="40" as="geometry"/>
                </mxCell>
                <mxCell id="50" value="输入用户ID、密码" style="rounded=0;whiteSpace=wrap;html=1;gradientColor=none;" parent="47" vertex="1">
                    <mxGeometry x="47.5" y="100" width="75" height="40" as="geometry"/>
                </mxCell>
                <mxCell id="51" value="跳转至聊天主页" style="rounded=0;whiteSpace=wrap;html=1;gradientColor=none;" parent="47" vertex="1">
                    <mxGeometry x="47.5" y="240" width="75" height="40" as="geometry"/>
                </mxCell>
                <mxCell id="52" value="系统" style="swimlane;startSize=20;html=1;rounded=0;swimlaneFillColor=default;" parent="46" vertex="1">
                    <mxGeometry x="170" y="20" width="180" height="310" as="geometry"/>
                </mxCell>
                <mxCell id="53" value="&lt;div style=&quot;line-height: 120%;&quot;&gt;判断密码&lt;/div&gt;" style="rhombus;whiteSpace=wrap;html=1;gradientColor=none;align=center;spacingLeft=5;spacingRight=5;" parent="52" vertex="1">
                    <mxGeometry x="35" y="150" width="110" height="60" as="geometry"/>
                </mxCell>
                <mxCell id="54" value="" style="edgeStyle=none;html=1;" parent="46" source="50" target="53" edge="1">
                    <mxGeometry relative="1" as="geometry">
                        <mxPoint x="260" y="200" as="targetPoint"/>
                        <Array as="points">
                            <mxPoint x="85" y="200"/>
                        </Array>
                    </mxGeometry>
                </mxCell>
                <mxCell id="55" style="edgeStyle=none;html=1;entryX=1;entryY=0.5;entryDx=0;entryDy=0;" parent="46" source="53" target="50" edge="1">
                    <mxGeometry relative="1" as="geometry">
                        <Array as="points">
                            <mxPoint x="260" y="140"/>
                        </Array>
                    </mxGeometry>
                </mxCell>
                <mxCell id="56" value="密码或ID错误" style="edgeLabel;html=1;align=center;verticalAlign=middle;resizable=0;points=[];" parent="55" vertex="1" connectable="0">
                    <mxGeometry x="-0.1238" relative="1" as="geometry">
                        <mxPoint as="offset"/>
                    </mxGeometry>
                </mxCell>
                <mxCell id="57" style="edgeStyle=none;html=1;" parent="46" source="53" target="51" edge="1">
                    <mxGeometry relative="1" as="geometry">
                        <mxPoint x="110" y="280" as="targetPoint"/>
                        <Array as="points">
                            <mxPoint x="260" y="280"/>
                        </Array>
                    </mxGeometry>
                </mxCell>
                <mxCell id="58" value="登录成功" style="edgeLabel;html=1;align=center;verticalAlign=middle;resizable=0;points=[];" parent="57" vertex="1" connectable="0">
                    <mxGeometry x="0.0996" relative="1" as="geometry">
                        <mxPoint as="offset"/>
                    </mxGeometry>
                </mxCell>
                <mxCell id="59" value="信息编辑" style="swimlane;childLayout=stackLayout;resizeParent=1;resizeParentMax=0;startSize=20;html=1;rounded=0;shadow=0;glass=0;swimlaneFillColor=default;" parent="1" vertex="1">
                    <mxGeometry x="190" y="-180" width="560" height="540" as="geometry"/>
                </mxCell>
                <mxCell id="60" value="用户" style="swimlane;startSize=20;html=1;rounded=0;swimlaneFillColor=default;spacingLeft=0;" parent="59" vertex="1">
                    <mxGeometry y="20" width="330" height="520" as="geometry"/>
                </mxCell>
                <mxCell id="75" value="" style="edgeStyle=none;html=1;" parent="60" source="62" target="74" edge="1">
                    <mxGeometry relative="1" as="geometry"/>
                </mxCell>
                <mxCell id="62" value="编辑界面" style="rounded=0;whiteSpace=wrap;html=1;gradientColor=none;" parent="60" vertex="1">
                    <mxGeometry x="112.5" y="30" width="75" height="40" as="geometry"/>
                </mxCell>
                <mxCell id="81" value="编辑信息" style="edgeStyle=none;html=1;" parent="60" source="74" target="80" edge="1">
                    <mxGeometry relative="1" as="geometry"/>
                </mxCell>
                <mxCell id="74" value="编辑信息或注销账号" style="rhombus;whiteSpace=wrap;html=1;rounded=0;gradientColor=none;spacingLeft=20;spacingRight=20;" parent="60" vertex="1">
                    <mxGeometry x="95" y="100" width="110" height="50" as="geometry"/>
                </mxCell>
                <mxCell id="85" value="" style="edgeStyle=none;html=1;" parent="60" source="76" target="84" edge="1">
                    <mxGeometry relative="1" as="geometry"/>
                </mxCell>
                <mxCell id="76" value="提示是否注销" style="whiteSpace=wrap;html=1;rounded=0;gradientColor=none;spacingLeft=0;spacingRight=0;" parent="60" vertex="1">
                    <mxGeometry x="10" y="180" width="75" height="50" as="geometry"/>
                </mxCell>
                <mxCell id="77" value="注销账号" style="edgeStyle=none;html=1;" parent="60" source="74" target="76" edge="1">
                    <mxGeometry relative="1" as="geometry"/>
                </mxCell>
                <mxCell id="80" value="输入新昵称、邮箱、手机号、密码、头像" style="whiteSpace=wrap;html=1;rounded=0;gradientColor=none;spacingLeft=0;spacingRight=0;spacing=2;" parent="60" vertex="1">
                    <mxGeometry x="205" y="180" width="105" height="50" as="geometry"/>
                </mxCell>
                <mxCell id="84" value="输入原密码" style="whiteSpace=wrap;html=1;rounded=0;gradientColor=none;spacingLeft=0;spacingRight=0;" parent="60" vertex="1">
                    <mxGeometry x="112.5" y="280" width="75" height="40" as="geometry"/>
                </mxCell>
                <mxCell id="86" style="edgeStyle=none;html=1;exitX=0.25;exitY=1;exitDx=0;exitDy=0;" parent="60" source="80" target="84" edge="1">
                    <mxGeometry relative="1" as="geometry">
                        <mxPoint x="160" y="500.0000000000002" as="targetPoint"/>
                    </mxGeometry>
                </mxCell>
                <mxCell id="94" value="刷新页面正确显示信息" style="whiteSpace=wrap;html=1;rounded=0;gradientColor=none;spacingLeft=0;spacingRight=0;" parent="60" vertex="1">
                    <mxGeometry x="112.5" y="450" width="75" height="40" as="geometry"/>
                </mxCell>
                <mxCell id="65" value="系统" style="swimlane;startSize=20;html=1;rounded=0;swimlaneFillColor=default;" parent="59" vertex="1">
                    <mxGeometry x="330" y="20" width="230" height="520" as="geometry"/>
                </mxCell>
                <mxCell id="93" value="" style="edgeStyle=none;html=1;" parent="65" source="87" target="92" edge="1">
                    <mxGeometry relative="1" as="geometry"/>
                </mxCell>
                <mxCell id="87" value="判断密码是否正确" style="rhombus;whiteSpace=wrap;html=1;rounded=0;gradientColor=none;spacingLeft=0;spacingRight=0;" parent="65" vertex="1">
                    <mxGeometry x="47.5" y="320" width="135" height="60" as="geometry"/>
                </mxCell>
                <mxCell id="92" value="保存信息" style="whiteSpace=wrap;html=1;rounded=0;gradientColor=none;spacingLeft=0;spacingRight=0;" parent="65" vertex="1">
                    <mxGeometry x="77.5" y="410" width="75" height="40" as="geometry"/>
                </mxCell>
                <mxCell id="88" value="" style="edgeStyle=none;html=1;exitX=0.5;exitY=1;exitDx=0;exitDy=0;" parent="59" source="84" target="87" edge="1">
                    <mxGeometry relative="1" as="geometry">
                        <Array as="points">
                            <mxPoint x="150" y="370"/>
                        </Array>
                    </mxGeometry>
                </mxCell>
                <mxCell id="89" style="edgeStyle=none;html=1;exitX=0.5;exitY=0;exitDx=0;exitDy=0;entryX=1;entryY=0.5;entryDx=0;entryDy=0;" parent="59" source="87" target="74" edge="1">
                    <mxGeometry relative="1" as="geometry">
                        <mxPoint x="200" y="140.00000000000023" as="targetPoint"/>
                        <Array as="points">
                            <mxPoint x="445" y="145"/>
                        </Array>
                    </mxGeometry>
                </mxCell>
                <mxCell id="91" value="密码错误" style="edgeLabel;html=1;align=center;verticalAlign=middle;resizable=0;points=[];" parent="89" vertex="1" connectable="0">
                    <mxGeometry x="0.5188" y="-2" relative="1" as="geometry">
                        <mxPoint as="offset"/>
                    </mxGeometry>
                </mxCell>
                <mxCell id="95" value="" style="edgeStyle=none;html=1;exitX=0.5;exitY=1;exitDx=0;exitDy=0;" parent="59" source="92" target="94" edge="1">
                    <mxGeometry relative="1" as="geometry">
                        <mxPoint x="520" y="470" as="sourcePoint"/>
                        <Array as="points">
                            <mxPoint x="445" y="490"/>
                        </Array>
                    </mxGeometry>
                </mxCell>
                <mxCell id="116" value="好友管理" style="swimlane;childLayout=stackLayout;resizeParent=1;resizeParentMax=0;startSize=20;html=1;gradientColor=none;swimlaneFillColor=default;" parent="1" vertex="1">
                    <mxGeometry x="980.0000000000005" y="-170" width="515" height="970" as="geometry"/>
                </mxCell>
                <mxCell id="117" value="用户A" style="swimlane;startSize=20;html=1;gradientColor=none;" parent="116" vertex="1">
                    <mxGeometry y="20" width="260" height="950" as="geometry"/>
                </mxCell>
                <mxCell id="120" value="精确搜索用户ID" style="rounded=0;whiteSpace=wrap;html=1;gradientColor=none;" parent="117" vertex="1">
                    <mxGeometry x="94.99999999999955" y="30" width="75" height="40" as="geometry"/>
                </mxCell>
                <mxCell id="128" value="" style="edgeStyle=none;html=1;" parent="117" source="125" target="127" edge="1">
                    <mxGeometry relative="1" as="geometry"/>
                </mxCell>
                <mxCell id="125" value="用户信息简介" style="whiteSpace=wrap;html=1;rounded=0;gradientColor=none;" parent="117" vertex="1">
                    <mxGeometry x="95" y="150" width="75" height="40" as="geometry"/>
                </mxCell>
                <mxCell id="127" value="对方个人主页" style="whiteSpace=wrap;html=1;rounded=0;gradientColor=none;" parent="117" vertex="1">
                    <mxGeometry x="95" y="220" width="75" height="40" as="geometry"/>
                </mxCell>
                <mxCell id="129" value="填写请求消息" style="whiteSpace=wrap;html=1;rounded=0;gradientColor=none;" parent="117" vertex="1">
                    <mxGeometry x="95" y="340" width="75" height="40" as="geometry"/>
                </mxCell>
                <mxCell id="157" value="" style="edgeStyle=none;html=1;" parent="117" source="149" target="156" edge="1">
                    <mxGeometry relative="1" as="geometry"/>
                </mxCell>
                <mxCell id="149" value="渲染好友列表与聊天列表" style="whiteSpace=wrap;html=1;rounded=0;gradientColor=none;spacingLeft=10;spacingRight=10;" parent="117" vertex="1">
                    <mxGeometry x="92.5" y="600" width="75" height="40" as="geometry"/>
                </mxCell>
                <mxCell id="159" value="" style="edgeStyle=none;html=1;" parent="117" source="156" target="158" edge="1">
                    <mxGeometry relative="1" as="geometry"/>
                </mxCell>
                <mxCell id="163" value="" style="edgeStyle=none;html=1;" parent="117" source="156" target="158" edge="1">
                    <mxGeometry relative="1" as="geometry"/>
                </mxCell>
                <mxCell id="168" value="" style="edgeStyle=none;html=1;" parent="117" source="156" target="167" edge="1">
                    <mxGeometry relative="1" as="geometry"/>
                </mxCell>
                <mxCell id="156" value="管理好友" style="rhombus;whiteSpace=wrap;html=1;rounded=0;gradientColor=none;spacingLeft=10;spacingRight=10;" parent="117" vertex="1">
                    <mxGeometry x="90" y="700" width="80" height="50" as="geometry"/>
                </mxCell>
                <mxCell id="158" value="设置分组标签" style="whiteSpace=wrap;html=1;rounded=0;gradientColor=none;spacingLeft=10;spacingRight=10;" parent="117" vertex="1">
                    <mxGeometry x="160" y="770" width="75" height="40" as="geometry"/>
                </mxCell>
                <mxCell id="167" value="删除好友" style="whiteSpace=wrap;html=1;rounded=0;gradientColor=none;spacingLeft=10;spacingRight=10;" parent="117" vertex="1">
                    <mxGeometry x="20" y="770" width="75" height="40" as="geometry"/>
                </mxCell>
                <mxCell id="118" value="后端" style="swimlane;startSize=20;html=1;gradientColor=none;" parent="116" vertex="1">
                    <mxGeometry x="260" y="20" width="135" height="950" as="geometry"/>
                </mxCell>
                <mxCell id="121" value="查找用户" style="rhombus;whiteSpace=wrap;html=1;rounded=0;gradientColor=none;" parent="118" vertex="1">
                    <mxGeometry x="20" y="85" width="80" height="55" as="geometry"/>
                </mxCell>
                <mxCell id="131" value="保存并处理历史请求" style="whiteSpace=wrap;html=1;rounded=0;gradientColor=none;" parent="118" vertex="1">
                    <mxGeometry x="22.5" y="380" width="75" height="40" as="geometry"/>
                </mxCell>
                <mxCell id="136" value="判断是否已为好友" style="rhombus;whiteSpace=wrap;html=1;rounded=0;gradientColor=none;spacingLeft=15;spacingRight=15;" parent="118" vertex="1">
                    <mxGeometry x="20" y="250" width="80" height="50" as="geometry"/>
                </mxCell>
                <mxCell id="144" value="设置请求忽略" style="whiteSpace=wrap;html=1;rounded=0;gradientColor=none;spacingLeft=10;spacingRight=10;" parent="118" vertex="1">
                    <mxGeometry x="22.5" y="525" width="75" height="40" as="geometry"/>
                </mxCell>
                <mxCell id="146" value="建立好友关系与聊天会话" style="whiteSpace=wrap;html=1;rounded=0;gradientColor=none;spacingLeft=10;spacingRight=10;" parent="118" vertex="1">
                    <mxGeometry x="22.5" y="600" width="75" height="40" as="geometry"/>
                </mxCell>
                <mxCell id="160" value="保存标签" style="whiteSpace=wrap;html=1;rounded=0;gradientColor=none;spacingLeft=10;spacingRight=10;" parent="118" vertex="1">
                    <mxGeometry x="30" y="770" width="75" height="40" as="geometry"/>
                </mxCell>
                <mxCell id="169" value="处理好友关系" style="whiteSpace=wrap;html=1;rounded=0;gradientColor=none;spacingLeft=10;spacingRight=10;" parent="118" vertex="1">
                    <mxGeometry x="30" y="855" width="75" height="40" as="geometry"/>
                </mxCell>
                <mxCell id="119" value="用户B" style="swimlane;startSize=20;html=1;gradientColor=none;swimlaneFillColor=none;" parent="116" vertex="1">
                    <mxGeometry x="395" y="20" width="120" height="950" as="geometry"/>
                </mxCell>
                <mxCell id="143" value="" style="edgeStyle=none;html=1;" parent="119" source="134" target="142" edge="1">
                    <mxGeometry relative="1" as="geometry"/>
                </mxCell>
                <mxCell id="134" value="收到好友请求并渲染列表" style="whiteSpace=wrap;html=1;rounded=0;gradientColor=none;" parent="119" vertex="1">
                    <mxGeometry x="22.5" y="420" width="75" height="40" as="geometry"/>
                </mxCell>
                <mxCell id="142" value="处理好友请求" style="rhombus;whiteSpace=wrap;html=1;rounded=0;gradientColor=none;spacingLeft=10;spacingRight=10;" parent="119" vertex="1">
                    <mxGeometry x="20" y="520" width="80" height="50" as="geometry"/>
                </mxCell>
                <mxCell id="151" value="渲染好友列表与聊天列表" style="whiteSpace=wrap;html=1;rounded=0;gradientColor=none;spacingLeft=10;spacingRight=10;" parent="119" vertex="1">
                    <mxGeometry x="22.5" y="660" width="75" height="40" as="geometry"/>
                </mxCell>
                <mxCell id="122" value="" style="edgeStyle=none;html=1;" parent="116" source="120" target="121" edge="1">
                    <mxGeometry relative="1" as="geometry">
                        <Array as="points">
                            <mxPoint x="132.99999999999955" y="133"/>
                        </Array>
                    </mxGeometry>
                </mxCell>
                <mxCell id="123" style="edgeStyle=none;html=1;exitX=0.5;exitY=0;exitDx=0;exitDy=0;entryX=1;entryY=0.5;entryDx=0;entryDy=0;" parent="116" source="121" target="120" edge="1">
                    <mxGeometry relative="1" as="geometry">
                        <Array as="points">
                            <mxPoint x="319.99999999999955" y="70"/>
                            <mxPoint x="179.99999999999955" y="70"/>
                        </Array>
                    </mxGeometry>
                </mxCell>
                <mxCell id="124" value="用户不存在" style="edgeLabel;html=1;align=center;verticalAlign=middle;resizable=0;points=[];" parent="123" vertex="1" connectable="0">
                    <mxGeometry x="0.1234" y="-1" relative="1" as="geometry">
                        <mxPoint as="offset"/>
                    </mxGeometry>
                </mxCell>
                <mxCell id="126" value="查询成功" style="edgeStyle=none;html=1;exitX=0.5;exitY=1;exitDx=0;exitDy=0;" parent="116" source="121" target="125" edge="1">
                    <mxGeometry relative="1" as="geometry">
                        <Array as="points">
                            <mxPoint x="319.99999999999955" y="190"/>
                            <mxPoint x="179.99999999999955" y="190"/>
                        </Array>
                    </mxGeometry>
                </mxCell>
                <mxCell id="132" value="" style="edgeStyle=none;html=1;" parent="116" source="129" target="131" edge="1">
                    <mxGeometry relative="1" as="geometry">
                        <Array as="points">
                            <mxPoint x="129.99999999999955" y="420"/>
                        </Array>
                    </mxGeometry>
                </mxCell>
                <mxCell id="135" value="" style="edgeStyle=none;html=1;" parent="116" source="131" target="134" edge="1">
                    <mxGeometry relative="1" as="geometry">
                        <Array as="points">
                            <mxPoint x="319.99999999999955" y="460"/>
                        </Array>
                    </mxGeometry>
                </mxCell>
                <mxCell id="137" value="" style="edgeStyle=none;html=1;" parent="116" source="127" target="136" edge="1">
                    <mxGeometry relative="1" as="geometry">
                        <Array as="points">
                            <mxPoint x="129.99999999999955" y="295"/>
                        </Array>
                    </mxGeometry>
                </mxCell>
                <mxCell id="139" style="edgeStyle=none;html=1;entryX=0.5;entryY=0;entryDx=0;entryDy=0;" parent="116" source="136" target="129" edge="1">
                    <mxGeometry relative="1" as="geometry">
                        <Array as="points">
                            <mxPoint x="319.99999999999955" y="350"/>
                            <mxPoint x="132.99999999999955" y="350"/>
                        </Array>
                    </mxGeometry>
                </mxCell>
                <mxCell id="140" value="否" style="edgeLabel;html=1;align=center;verticalAlign=middle;resizable=0;points=[];" parent="139" vertex="1" connectable="0">
                    <mxGeometry x="-0.1958" y="-1" relative="1" as="geometry">
                        <mxPoint as="offset"/>
                    </mxGeometry>
                </mxCell>
                <mxCell id="145" value="忽略" style="edgeStyle=none;html=1;" parent="116" source="142" target="144" edge="1">
                    <mxGeometry relative="1" as="geometry"/>
                </mxCell>
                <mxCell id="147" value="" style="edgeStyle=none;html=1;" parent="116" source="142" edge="1">
                    <mxGeometry relative="1" as="geometry">
                        <mxPoint x="359.99999999999955" y="640" as="targetPoint"/>
                        <Array as="points">
                            <mxPoint x="454.99999999999955" y="630"/>
                            <mxPoint x="454.99999999999955" y="640"/>
                        </Array>
                    </mxGeometry>
                </mxCell>
                <mxCell id="148" value="同意" style="edgeLabel;html=1;align=center;verticalAlign=middle;resizable=0;points=[];" parent="147" vertex="1" connectable="0">
                    <mxGeometry x="0.1209" y="2" relative="1" as="geometry">
                        <mxPoint as="offset"/>
                    </mxGeometry>
                </mxCell>
                <mxCell id="150" value="" style="edgeStyle=none;html=1;" parent="116" source="146" target="149" edge="1">
                    <mxGeometry relative="1" as="geometry"/>
                </mxCell>
                <mxCell id="152" value="" style="edgeStyle=none;html=1;" parent="116" source="146" target="151" edge="1">
                    <mxGeometry relative="1" as="geometry">
                        <Array as="points">
                            <mxPoint x="319.99999999999955" y="700"/>
                        </Array>
                    </mxGeometry>
                </mxCell>
                <mxCell id="141" style="edgeStyle=none;html=1;exitX=0;exitY=1;exitDx=0;exitDy=0;entryX=0;entryY=0.5;entryDx=0;entryDy=0;" parent="116" source="136" target="156" edge="1">
                    <mxGeometry relative="1" as="geometry">
                        <mxPoint x="19.999999999999545" y="720" as="targetPoint"/>
                        <Array as="points">
                            <mxPoint x="69.99999999999955" y="308"/>
                            <mxPoint x="69.99999999999955" y="710"/>
                        </Array>
                    </mxGeometry>
                </mxCell>
                <mxCell id="155" value="是" style="edgeLabel;html=1;align=center;verticalAlign=middle;resizable=0;points=[];" parent="141" vertex="1" connectable="0">
                    <mxGeometry x="-0.6585" y="3" relative="1" as="geometry">
                        <mxPoint as="offset"/>
                    </mxGeometry>
                </mxCell>
                <mxCell id="161" value="" style="edgeStyle=none;html=1;" parent="116" source="158" target="160" edge="1">
                    <mxGeometry relative="1" as="geometry"/>
                </mxCell>
                <mxCell id="162" style="edgeStyle=none;html=1;exitX=0.5;exitY=0;exitDx=0;exitDy=0;entryX=1;entryY=1;entryDx=0;entryDy=0;" parent="116" source="160" target="149" edge="1">
                    <mxGeometry relative="1" as="geometry"/>
                </mxCell>
                <mxCell id="170" value="" style="edgeStyle=none;html=1;" parent="116" source="167" target="169" edge="1">
                    <mxGeometry relative="1" as="geometry">
                        <Array as="points">
                            <mxPoint x="57.999999999999545" y="895"/>
                        </Array>
                    </mxGeometry>
                </mxCell>
                <mxCell id="174" style="edgeStyle=none;html=1;exitX=0.25;exitY=0;exitDx=0;exitDy=0;entryX=0.931;entryY=1.012;entryDx=0;entryDy=0;entryPerimeter=0;" parent="116" source="169" target="149" edge="1">
                    <mxGeometry relative="1" as="geometry"/>
                </mxCell>
                <mxCell id="175" style="edgeStyle=none;html=1;exitX=0.75;exitY=0;exitDx=0;exitDy=0;entryX=0.5;entryY=1;entryDx=0;entryDy=0;" parent="116" source="169" target="151" edge="1">
                    <mxGeometry relative="1" as="geometry"/>
                </mxCell>
                <mxCell id="176" value="消息收发" style="swimlane;childLayout=stackLayout;resizeParent=1;resizeParentMax=0;startSize=20;html=1;gradientColor=none;swimlaneFillColor=default;" parent="1" vertex="1">
                    <mxGeometry x="210.00000000000045" y="-1110" width="600" height="880" as="geometry"/>
                </mxCell>
                <mxCell id="177" value="用户A" style="swimlane;startSize=20;html=1;gradientColor=none;" parent="176" vertex="1">
                    <mxGeometry y="20" width="200" height="860" as="geometry"/>
                </mxCell>
                <mxCell id="181" value="发送消息" style="rounded=0;whiteSpace=wrap;html=1;gradientColor=none;" parent="177" vertex="1">
                    <mxGeometry x="62.499999999999545" y="30" width="75" height="40" as="geometry"/>
                </mxCell>
                <mxCell id="190" value="刷新未读、消息" style="whiteSpace=wrap;html=1;rounded=0;gradientColor=none;" parent="177" vertex="1">
                    <mxGeometry x="60" y="120" width="75" height="40" as="geometry"/>
                </mxCell>
                <mxCell id="202" value="" style="edgeStyle=none;html=1;" parent="177" source="199" target="201" edge="1">
                    <mxGeometry relative="1" as="geometry"/>
                </mxCell>
                <mxCell id="199" value="刷新消息已读列表" style="whiteSpace=wrap;html=1;rounded=0;gradientColor=none;" parent="177" vertex="1">
                    <mxGeometry x="60" y="310" width="75" height="40" as="geometry"/>
                </mxCell>
                <mxCell id="201" value="回复消息" style="whiteSpace=wrap;html=1;rounded=0;gradientColor=none;" parent="177" vertex="1">
                    <mxGeometry x="60" y="390" width="75" height="40" as="geometry"/>
                </mxCell>
                <mxCell id="210" value="" style="edgeStyle=none;html=1;" parent="177" source="207" target="209" edge="1">
                    <mxGeometry relative="1" as="geometry"/>
                </mxCell>
                <mxCell id="207" value="渲染消息并更新被回复消息" style="whiteSpace=wrap;html=1;rounded=0;gradientColor=none;" parent="177" vertex="1">
                    <mxGeometry x="60" y="490" width="75" height="40" as="geometry"/>
                </mxCell>
                <mxCell id="216" value="查看历史消息" style="edgeStyle=none;html=1;" parent="177" source="209" target="215" edge="1">
                    <mxGeometry relative="1" as="geometry"/>
                </mxCell>
                <mxCell id="209" value="删除消息" style="whiteSpace=wrap;html=1;rounded=0;gradientColor=none;" parent="177" vertex="1">
                    <mxGeometry x="60" y="570" width="75" height="40" as="geometry"/>
                </mxCell>
                <mxCell id="218" value="根据时间、用户过滤" style="edgeStyle=none;html=1;" parent="177" source="215" target="217" edge="1">
                    <mxGeometry relative="1" as="geometry"/>
                </mxCell>
                <mxCell id="215" value="历史消息" style="whiteSpace=wrap;html=1;rounded=0;gradientColor=none;" parent="177" vertex="1">
                    <mxGeometry x="60" y="650" width="75" height="40" as="geometry"/>
                </mxCell>
                <mxCell id="219" value="关闭" style="edgeStyle=none;html=1;exitX=0;exitY=0.5;exitDx=0;exitDy=0;entryX=0;entryY=0.5;entryDx=0;entryDy=0;" parent="177" source="217" target="181" edge="1">
                    <mxGeometry relative="1" as="geometry">
                        <mxPoint x="29.999999999999545" y="50" as="targetPoint"/>
                        <Array as="points">
                            <mxPoint x="29.999999999999545" y="750"/>
                            <mxPoint x="29.999999999999545" y="670"/>
                            <mxPoint x="29.999999999999545" y="50"/>
                        </Array>
                    </mxGeometry>
                </mxCell>
                <mxCell id="217" value="特定消息" style="whiteSpace=wrap;html=1;rounded=0;gradientColor=none;" parent="177" vertex="1">
                    <mxGeometry x="60" y="730" width="75" height="40" as="geometry"/>
                </mxCell>
                <mxCell id="178" value="后端" style="swimlane;startSize=20;html=1;gradientColor=none;" parent="176" vertex="1">
                    <mxGeometry x="200" y="20" width="200" height="860" as="geometry"/>
                </mxCell>
                <mxCell id="184" value="处理消息时间、内容等" style="whiteSpace=wrap;html=1;rounded=0;gradientColor=none;" parent="178" vertex="1">
                    <mxGeometry x="59.999999999999545" y="70" width="75" height="40" as="geometry"/>
                </mxCell>
                <mxCell id="191" value="websocket" style="endArrow=none;html=1;" parent="178" edge="1">
                    <mxGeometry width="50" height="50" relative="1" as="geometry">
                        <mxPoint x="96.99999999999955" y="140" as="sourcePoint"/>
                        <mxPoint x="97.15999999999954" y="110" as="targetPoint"/>
                    </mxGeometry>
                </mxCell>
                <mxCell id="194" value="更新当前会话已读列表" style="whiteSpace=wrap;html=1;rounded=0;gradientColor=none;" parent="178" vertex="1">
                    <mxGeometry x="60" y="250" width="75" height="40" as="geometry"/>
                </mxCell>
                <mxCell id="198" value="" style="endArrow=classic;startArrow=classic;html=1;entryX=0;entryY=0.5;entryDx=0;entryDy=0;" parent="178" edge="1">
                    <mxGeometry width="50" height="50" relative="1" as="geometry">
                        <mxPoint x="-65" y="330" as="sourcePoint"/>
                        <mxPoint x="265.0000000000002" y="330" as="targetPoint"/>
                    </mxGeometry>
                </mxCell>
                <mxCell id="203" value="处理消息与被回复消息" style="whiteSpace=wrap;html=1;rounded=0;gradientColor=none;" parent="178" vertex="1">
                    <mxGeometry x="62.5" y="430" width="75" height="40" as="geometry"/>
                </mxCell>
                <mxCell id="205" value="websocket" style="endArrow=none;html=1;" parent="178" edge="1">
                    <mxGeometry width="50" height="50" relative="1" as="geometry">
                        <mxPoint x="99.65666666666652" y="470" as="sourcePoint"/>
                        <mxPoint x="99.98999999999955" y="510" as="targetPoint"/>
                        <Array as="points"/>
                    </mxGeometry>
                </mxCell>
                <mxCell id="206" value="" style="endArrow=classic;startArrow=classic;html=1;entryX=0;entryY=0.5;entryDx=0;entryDy=0;" parent="178" edge="1">
                    <mxGeometry width="50" height="50" relative="1" as="geometry">
                        <mxPoint x="-65" y="510" as="sourcePoint"/>
                        <mxPoint x="265.0000000000002" y="510" as="targetPoint"/>
                    </mxGeometry>
                </mxCell>
                <mxCell id="211" value="为消息标记删除用户" style="whiteSpace=wrap;html=1;rounded=0;gradientColor=none;" parent="178" vertex="1">
                    <mxGeometry x="62.5" y="570" width="75" height="40" as="geometry"/>
                </mxCell>
                <mxCell id="179" value="其他用户" style="swimlane;startSize=20;html=1;gradientColor=none;" parent="176" vertex="1">
                    <mxGeometry x="400" y="20" width="200" height="860" as="geometry"/>
                </mxCell>
                <mxCell id="193" value="" style="edgeStyle=none;html=1;" parent="179" source="186" target="192" edge="1">
                    <mxGeometry relative="1" as="geometry"/>
                </mxCell>
                <mxCell id="186" value="刷新未读、消息" style="whiteSpace=wrap;html=1;rounded=0;gradientColor=none;" parent="179" vertex="1">
                    <mxGeometry x="65" y="120" width="75" height="40" as="geometry"/>
                </mxCell>
                <mxCell id="192" value="点击会话清除未读" style="whiteSpace=wrap;html=1;rounded=0;gradientColor=none;" parent="179" vertex="1">
                    <mxGeometry x="65" y="200" width="75" height="40" as="geometry"/>
                </mxCell>
                <mxCell id="200" value="刷新消息已读列表" style="whiteSpace=wrap;html=1;rounded=0;gradientColor=none;" parent="179" vertex="1">
                    <mxGeometry x="65" y="310" width="75" height="40" as="geometry"/>
                </mxCell>
                <mxCell id="208" value="渲染消息并更新被回复消息" style="whiteSpace=wrap;html=1;rounded=0;gradientColor=none;" parent="179" vertex="1">
                    <mxGeometry x="65" y="490" width="75" height="40" as="geometry"/>
                </mxCell>
                <mxCell id="185" value="" style="edgeStyle=none;html=1;" parent="176" source="181" target="184" edge="1">
                    <mxGeometry relative="1" as="geometry">
                        <Array as="points">
                            <mxPoint x="99.99999999999955" y="110"/>
                        </Array>
                    </mxGeometry>
                </mxCell>
                <mxCell id="189" value="" style="endArrow=classic;startArrow=classic;html=1;entryX=0;entryY=0.5;entryDx=0;entryDy=0;" parent="176" source="190" target="186" edge="1">
                    <mxGeometry width="50" height="50" relative="1" as="geometry">
                        <mxPoint x="134.99999999999955" y="159.66" as="sourcePoint"/>
                        <mxPoint x="459.99999999999955" y="160" as="targetPoint"/>
                    </mxGeometry>
                </mxCell>
                <mxCell id="195" value="" style="edgeStyle=none;html=1;" parent="176" source="192" target="194" edge="1">
                    <mxGeometry relative="1" as="geometry">
                        <Array as="points">
                            <mxPoint x="502.99999999999955" y="290"/>
                        </Array>
                    </mxGeometry>
                </mxCell>
                <mxCell id="204" value="" style="edgeStyle=none;html=1;" parent="176" source="201" target="203" edge="1">
                    <mxGeometry relative="1" as="geometry">
                        <Array as="points">
                            <mxPoint x="97.99999999999955" y="470"/>
                        </Array>
                    </mxGeometry>
                </mxCell>
                <mxCell id="212" value="" style="edgeStyle=none;html=1;" parent="176" source="209" target="211" edge="1">
                    <mxGeometry relative="1" as="geometry">
                        <Array as="points">
                            <mxPoint x="159.99999999999955" y="610"/>
                        </Array>
                    </mxGeometry>
                </mxCell>
                <mxCell id="197" value="websocket" style="endArrow=none;html=1;" parent="1" source="194" edge="1">
                    <mxGeometry width="50" height="50" relative="1" as="geometry">
                        <mxPoint x="517" y="-940" as="sourcePoint"/>
                        <mxPoint x="508" y="-760" as="targetPoint"/>
                        <Array as="points"/>
                    </mxGeometry>
                </mxCell>
                <mxCell id="220" value="群聊管理" style="swimlane;childLayout=stackLayout;resizeParent=1;resizeParentMax=0;startSize=20;html=1;gradientColor=none;swimlaneFillColor=default;" parent="1" vertex="1">
                    <mxGeometry x="1654.0000000000005" y="-1110" width="800" height="1380" as="geometry"/>
                </mxCell>
                <mxCell id="221" value="群主" style="swimlane;startSize=20;html=1;gradientColor=none;" parent="220" vertex="1">
                    <mxGeometry y="20" width="200" height="1360" as="geometry"/>
                </mxCell>
                <mxCell id="225" value="选择好友建立群聊" style="rounded=0;whiteSpace=wrap;html=1;gradientColor=none;" parent="221" vertex="1">
                    <mxGeometry x="62.499999999999545" y="40" width="75" height="40" as="geometry"/>
                </mxCell>
                <mxCell id="263" value="" style="edgeStyle=none;html=1;" parent="221" source="246" target="262" edge="1">
                    <mxGeometry relative="1" as="geometry"/>
                </mxCell>
                <mxCell id="246" value="处理请求" style="rhombus;whiteSpace=wrap;html=1;rounded=0;gradientColor=none;spacingLeft=0;spacingRight=0;" parent="221" vertex="1">
                    <mxGeometry x="62.5" y="385" width="80" height="50" as="geometry"/>
                </mxCell>
                <mxCell id="258" value="刷新群聊" style="whiteSpace=wrap;html=1;rounded=0;gradientColor=none;spacingLeft=20;spacingRight=20;" parent="221" vertex="1">
                    <mxGeometry x="67.5" y="190" width="75" height="40" as="geometry"/>
                </mxCell>
                <mxCell id="262" value="同意" style="whiteSpace=wrap;html=1;rounded=0;gradientColor=none;spacingLeft=0;spacingRight=0;" parent="221" vertex="1">
                    <mxGeometry x="62.5" y="510" width="75" height="40" as="geometry"/>
                </mxCell>
                <mxCell id="275" value="" style="edgeStyle=none;html=1;" parent="221" source="272" target="274" edge="1">
                    <mxGeometry relative="1" as="geometry"/>
                </mxCell>
                <mxCell id="272" value="刷新会话" style="whiteSpace=wrap;html=1;rounded=0;gradientColor=none;spacingLeft=0;spacingRight=0;" parent="221" vertex="1">
                    <mxGeometry x="62.5" y="630" width="75" height="40" as="geometry"/>
                </mxCell>
                <mxCell id="282" value="" style="edgeStyle=none;html=1;" parent="221" source="274" target="281" edge="1">
                    <mxGeometry relative="1" as="geometry"/>
                </mxCell>
                <mxCell id="274" value="邀请好友" style="whiteSpace=wrap;html=1;rounded=0;gradientColor=none;spacingLeft=0;spacingRight=0;" parent="221" vertex="1">
                    <mxGeometry x="62.5" y="750" width="75" height="40" as="geometry"/>
                </mxCell>
                <mxCell id="291" value="" style="edgeStyle=none;html=1;" parent="221" source="281" target="290" edge="1">
                    <mxGeometry relative="1" as="geometry"/>
                </mxCell>
                <mxCell id="281" value="设置管理员" style="whiteSpace=wrap;html=1;rounded=0;gradientColor=none;spacingLeft=0;spacingRight=0;" parent="221" vertex="1">
                    <mxGeometry x="62.5" y="870" width="75" height="40" as="geometry"/>
                </mxCell>
                <mxCell id="300" value="" style="edgeStyle=none;html=1;" parent="221" source="290" target="299" edge="1">
                    <mxGeometry relative="1" as="geometry"/>
                </mxCell>
                <mxCell id="290" value="踢出管理员和群员" style="whiteSpace=wrap;html=1;rounded=0;gradientColor=none;spacingLeft=0;spacingRight=0;" parent="221" vertex="1">
                    <mxGeometry x="62.5" y="940" width="75" height="40" as="geometry"/>
                </mxCell>
                <mxCell id="304" value="" style="edgeStyle=none;html=1;" parent="221" source="299" target="303" edge="1">
                    <mxGeometry relative="1" as="geometry"/>
                </mxCell>
                <mxCell id="299" value="转让群主" style="whiteSpace=wrap;html=1;rounded=0;gradientColor=none;spacingLeft=0;spacingRight=0;" parent="221" vertex="1">
                    <mxGeometry x="62.5" y="1060" width="75" height="40" as="geometry"/>
                </mxCell>
                <mxCell id="303" value="编辑群公告" style="whiteSpace=wrap;html=1;rounded=0;gradientColor=none;spacingLeft=0;spacingRight=0;" parent="221" vertex="1">
                    <mxGeometry x="62.5" y="1180" width="75" height="40" as="geometry"/>
                </mxCell>
                <mxCell id="314" value="刷新群公告" style="whiteSpace=wrap;html=1;rounded=0;gradientColor=none;spacingLeft=0;spacingRight=0;" parent="221" vertex="1">
                    <mxGeometry x="62.5" y="1260" width="75" height="40" as="geometry"/>
                </mxCell>
                <mxCell id="222" value="管理员" style="swimlane;startSize=20;html=1;gradientColor=none;" parent="220" vertex="1">
                    <mxGeometry x="200" y="20" width="200" height="1360" as="geometry"/>
                </mxCell>
                <mxCell id="250" value="" style="edgeStyle=none;html=1;" parent="222" source="243" target="249" edge="1">
                    <mxGeometry relative="1" as="geometry"/>
                </mxCell>
                <mxCell id="243" value="处理请求" style="rhombus;whiteSpace=wrap;html=1;rounded=0;gradientColor=none;spacingLeft=0;spacingRight=0;" parent="222" vertex="1">
                    <mxGeometry x="60" y="385" width="80" height="50" as="geometry"/>
                </mxCell>
                <mxCell id="249" value="拒绝" style="whiteSpace=wrap;html=1;rounded=0;gradientColor=none;spacingLeft=0;spacingRight=0;" parent="222" vertex="1">
                    <mxGeometry x="6" y="466" width="75" height="40" as="geometry"/>
                </mxCell>
                <mxCell id="232" value="刷新群聊" style="whiteSpace=wrap;html=1;rounded=0;gradientColor=none;spacingLeft=20;spacingRight=20;" parent="222" vertex="1">
                    <mxGeometry x="62.5" y="190" width="75" height="40" as="geometry"/>
                </mxCell>
                <mxCell id="277" value="" style="edgeStyle=none;html=1;" parent="222" source="270" target="276" edge="1">
                    <mxGeometry relative="1" as="geometry"/>
                </mxCell>
                <mxCell id="270" value="刷新会话" style="whiteSpace=wrap;html=1;rounded=0;gradientColor=none;spacingLeft=0;spacingRight=0;" parent="222" vertex="1">
                    <mxGeometry x="62.5" y="630" width="75" height="40" as="geometry"/>
                </mxCell>
                <mxCell id="289" value="" style="edgeStyle=none;html=1;" parent="222" source="276" target="288" edge="1">
                    <mxGeometry relative="1" as="geometry"/>
                </mxCell>
                <mxCell id="276" value="邀请好友" style="whiteSpace=wrap;html=1;rounded=0;gradientColor=none;spacingLeft=0;spacingRight=0;" parent="222" vertex="1">
                    <mxGeometry x="62.5" y="750" width="75" height="40" as="geometry"/>
                </mxCell>
                <mxCell id="288" value="踢出群员" style="whiteSpace=wrap;html=1;rounded=0;gradientColor=none;spacingLeft=0;spacingRight=0;" parent="222" vertex="1">
                    <mxGeometry x="62.5" y="940" width="75" height="40" as="geometry"/>
                </mxCell>
                <mxCell id="312" value="刷新群公告" style="whiteSpace=wrap;html=1;rounded=0;gradientColor=none;spacingLeft=0;spacingRight=0;" parent="222" vertex="1">
                    <mxGeometry x="62.5" y="1260" width="75" height="40" as="geometry"/>
                </mxCell>
                <mxCell id="223" value="群员" style="swimlane;startSize=20;html=1;gradientColor=none;" parent="220" vertex="1">
                    <mxGeometry x="400" y="20" width="200" height="1360" as="geometry"/>
                </mxCell>
                <mxCell id="236" value="" style="edgeStyle=none;html=1;" parent="223" source="230" target="235" edge="1">
                    <mxGeometry relative="1" as="geometry"/>
                </mxCell>
                <mxCell id="230" value="刷新群聊" style="whiteSpace=wrap;html=1;rounded=0;gradientColor=none;spacingLeft=20;spacingRight=20;" parent="223" vertex="1">
                    <mxGeometry x="62.5" y="190" width="75" height="40" as="geometry"/>
                </mxCell>
                <mxCell id="235" value="邀请好友" style="whiteSpace=wrap;html=1;rounded=0;gradientColor=none;spacingLeft=20;spacingRight=20;" parent="223" vertex="1">
                    <mxGeometry x="62.5" y="270" width="75" height="40" as="geometry"/>
                </mxCell>
                <mxCell id="297" value="" style="edgeStyle=none;html=1;" parent="223" source="268" target="296" edge="1">
                    <mxGeometry relative="1" as="geometry"/>
                </mxCell>
                <mxCell id="268" value="刷新会话" style="whiteSpace=wrap;html=1;rounded=0;gradientColor=none;spacingLeft=0;spacingRight=0;" parent="223" vertex="1">
                    <mxGeometry x="62.5" y="630" width="75" height="40" as="geometry"/>
                </mxCell>
                <mxCell id="296" value="退出群聊" style="whiteSpace=wrap;html=1;rounded=0;gradientColor=none;spacingLeft=0;spacingRight=0;" parent="223" vertex="1">
                    <mxGeometry x="62.5" y="790" width="75" height="40" as="geometry"/>
                </mxCell>
                <mxCell id="310" value="刷新群公告" style="whiteSpace=wrap;html=1;rounded=0;gradientColor=none;spacingLeft=0;spacingRight=0;" parent="223" vertex="1">
                    <mxGeometry x="62.5" y="1260" width="75" height="40" as="geometry"/>
                </mxCell>
                <mxCell id="224" value="后端" style="swimlane;startSize=20;html=1;gradientColor=none;" parent="220" vertex="1">
                    <mxGeometry x="600" y="20" width="200" height="1360" as="geometry"/>
                </mxCell>
                <mxCell id="226" value="判断人数与好友关系" style="rhombus;whiteSpace=wrap;html=1;rounded=0;gradientColor=none;spacingLeft=20;spacingRight=20;" parent="224" vertex="1">
                    <mxGeometry x="37.5" y="110" width="125" height="60" as="geometry"/>
                </mxCell>
                <mxCell id="241" value="创建群聊请求" style="whiteSpace=wrap;html=1;rounded=0;gradientColor=none;spacingLeft=0;spacingRight=0;" parent="224" vertex="1">
                    <mxGeometry x="62.5" y="330" width="75" height="40" as="geometry"/>
                </mxCell>
                <mxCell id="256" value="删除请求" style="whiteSpace=wrap;html=1;rounded=0;gradientColor=none;spacingLeft=0;spacingRight=0;" parent="224" vertex="1">
                    <mxGeometry x="62.5" y="466" width="75" height="40" as="geometry"/>
                </mxCell>
                <mxCell id="265" value="处理群员身份" style="whiteSpace=wrap;html=1;rounded=0;gradientColor=none;spacingLeft=0;spacingRight=0;" parent="224" vertex="1">
                    <mxGeometry x="62.5" y="565" width="75" height="40" as="geometry"/>
                </mxCell>
                <mxCell id="308" value="更新公告列表" style="whiteSpace=wrap;html=1;rounded=0;gradientColor=none;spacingLeft=0;spacingRight=0;" parent="224" vertex="1">
                    <mxGeometry x="76" y="1180" width="75" height="40" as="geometry"/>
                </mxCell>
                <mxCell id="227" value="" style="edgeStyle=none;html=1;" parent="220" source="225" target="226" edge="1">
                    <mxGeometry relative="1" as="geometry">
                        <Array as="points">
                            <mxPoint x="99.99999999999955" y="160"/>
                        </Array>
                    </mxGeometry>
                </mxCell>
                <mxCell id="228" style="edgeStyle=none;html=1;exitX=0.5;exitY=0;exitDx=0;exitDy=0;entryX=1;entryY=0.5;entryDx=0;entryDy=0;" parent="220" source="226" target="225" edge="1">
                    <mxGeometry relative="1" as="geometry">
                        <Array as="points">
                            <mxPoint x="699.9999999999995" y="80"/>
                        </Array>
                    </mxGeometry>
                </mxCell>
                <mxCell id="229" value="人数少于2人或好友关系错误" style="edgeLabel;html=1;align=center;verticalAlign=middle;resizable=0;points=[];" parent="228" vertex="1" connectable="0">
                    <mxGeometry x="0.282" y="-2" relative="1" as="geometry">
                        <mxPoint as="offset"/>
                    </mxGeometry>
                </mxCell>
                <mxCell id="231" value="" style="edgeStyle=none;html=1;" parent="220" source="226" target="230" edge="1">
                    <mxGeometry relative="1" as="geometry">
                        <Array as="points">
                            <mxPoint x="699.9999999999995" y="230"/>
                        </Array>
                    </mxGeometry>
                </mxCell>
                <mxCell id="234" value="websocket" style="edgeLabel;html=1;align=center;verticalAlign=middle;resizable=0;points=[];" parent="231" vertex="1" connectable="0">
                    <mxGeometry x="0.116" y="-1" relative="1" as="geometry">
                        <mxPoint as="offset"/>
                    </mxGeometry>
                </mxCell>
                <mxCell id="233" value="" style="edgeStyle=none;html=1;" parent="220" source="230" target="232" edge="1">
                    <mxGeometry relative="1" as="geometry"/>
                </mxCell>
                <mxCell id="242" value="" style="edgeStyle=none;html=1;" parent="220" source="235" target="241" edge="1">
                    <mxGeometry relative="1" as="geometry">
                        <Array as="points">
                            <mxPoint x="499.99999999999955" y="370"/>
                        </Array>
                    </mxGeometry>
                </mxCell>
                <mxCell id="244" value="" style="edgeStyle=none;html=1;" parent="220" source="241" target="243" edge="1">
                    <mxGeometry relative="1" as="geometry">
                        <Array as="points">
                            <mxPoint x="699.9999999999995" y="430"/>
                        </Array>
                    </mxGeometry>
                </mxCell>
                <mxCell id="245" value="websocket" style="edgeLabel;html=1;align=center;verticalAlign=middle;resizable=0;points=[];" parent="244" vertex="1" connectable="0">
                    <mxGeometry x="0.2363" y="-2" relative="1" as="geometry">
                        <mxPoint as="offset"/>
                    </mxGeometry>
                </mxCell>
                <mxCell id="247" value="" style="edgeStyle=none;html=1;" parent="220" source="243" target="246" edge="1">
                    <mxGeometry relative="1" as="geometry"/>
                </mxCell>
                <mxCell id="253" style="edgeStyle=none;html=1;exitX=1;exitY=1;exitDx=0;exitDy=0;entryX=0;entryY=0;entryDx=0;entryDy=0;" parent="220" source="246" target="249" edge="1">
                    <mxGeometry relative="1" as="geometry"/>
                </mxCell>
                <mxCell id="257" value="" style="edgeStyle=none;html=1;" parent="220" source="249" target="256" edge="1">
                    <mxGeometry relative="1" as="geometry"/>
                </mxCell>
                <mxCell id="259" value="" style="edgeStyle=none;html=1;" parent="220" source="232" target="258" edge="1">
                    <mxGeometry relative="1" as="geometry"/>
                </mxCell>
                <mxCell id="260" style="edgeStyle=none;html=1;exitX=0.25;exitY=0;exitDx=0;exitDy=0;entryX=0.5;entryY=1;entryDx=0;entryDy=0;" parent="220" source="256" target="232" edge="1">
                    <mxGeometry relative="1" as="geometry"/>
                </mxCell>
                <mxCell id="261" style="edgeStyle=none;html=1;exitX=0;exitY=0;exitDx=0;exitDy=0;entryX=1;entryY=1;entryDx=0;entryDy=0;" parent="220" source="256" target="258" edge="1">
                    <mxGeometry relative="1" as="geometry"/>
                </mxCell>
                <mxCell id="264" style="edgeStyle=none;html=1;exitX=0;exitY=1;exitDx=0;exitDy=0;entryX=0.571;entryY=-0.051;entryDx=0;entryDy=0;entryPerimeter=0;" parent="220" source="243" target="262" edge="1">
                    <mxGeometry relative="1" as="geometry"/>
                </mxCell>
                <mxCell id="266" value="" style="edgeStyle=none;html=1;" parent="220" source="262" target="265" edge="1">
                    <mxGeometry relative="1" as="geometry">
                        <Array as="points">
                            <mxPoint x="99.99999999999955" y="600"/>
                        </Array>
                    </mxGeometry>
                </mxCell>
                <mxCell id="269" value="websocket" style="edgeStyle=none;html=1;" parent="220" source="265" target="268" edge="1">
                    <mxGeometry relative="1" as="geometry">
                        <Array as="points">
                            <mxPoint x="699.9999999999995" y="670"/>
                        </Array>
                    </mxGeometry>
                </mxCell>
                <mxCell id="271" value="" style="edgeStyle=none;html=1;" parent="220" source="268" target="270" edge="1">
                    <mxGeometry relative="1" as="geometry"/>
                </mxCell>
                <mxCell id="273" value="" style="edgeStyle=none;html=1;" parent="220" source="270" target="272" edge="1">
                    <mxGeometry relative="1" as="geometry"/>
                </mxCell>
                <mxCell id="279" style="edgeStyle=none;html=1;exitX=1;exitY=0;exitDx=0;exitDy=0;entryX=0;entryY=1;entryDx=0;entryDy=0;" parent="220" source="274" target="265" edge="1">
                    <mxGeometry relative="1" as="geometry">
                        <Array as="points">
                            <mxPoint x="175.99999999999955" y="770"/>
                            <mxPoint x="175.99999999999955" y="630"/>
                        </Array>
                    </mxGeometry>
                </mxCell>
                <mxCell id="280" style="edgeStyle=none;html=1;exitX=1;exitY=0.5;exitDx=0;exitDy=0;entryX=0.865;entryY=0.979;entryDx=0;entryDy=0;entryPerimeter=0;" parent="220" source="276" target="265" edge="1">
                    <mxGeometry relative="1" as="geometry">
                        <Array as="points">
                            <mxPoint x="726.9999999999995" y="790"/>
                        </Array>
                    </mxGeometry>
                </mxCell>
                <mxCell id="287" style="edgeStyle=none;html=1;entryX=0.25;entryY=1;entryDx=0;entryDy=0;" parent="220" source="281" target="265" edge="1">
                    <mxGeometry relative="1" as="geometry">
                        <Array as="points">
                            <mxPoint x="680.9999999999995" y="910"/>
                        </Array>
                    </mxGeometry>
                </mxCell>
                <mxCell id="293" style="edgeStyle=none;html=1;exitX=1;exitY=0.5;exitDx=0;exitDy=0;entryX=1;entryY=0.25;entryDx=0;entryDy=0;" parent="220" source="290" target="265" edge="1">
                    <mxGeometry relative="1" as="geometry">
                        <mxPoint x="745.9999999999995" y="600" as="targetPoint"/>
                        <Array as="points">
                            <mxPoint x="155.99999999999955" y="980"/>
                            <mxPoint x="155.99999999999955" y="1050"/>
                            <mxPoint x="775.9999999999995" y="1050"/>
                            <mxPoint x="775.9999999999995" y="595"/>
                        </Array>
                    </mxGeometry>
                </mxCell>
                <mxCell id="295" style="edgeStyle=none;html=1;entryX=1;entryY=0.5;entryDx=0;entryDy=0;" parent="220" source="288" target="265" edge="1">
                    <mxGeometry relative="1" as="geometry">
                        <Array as="points">
                            <mxPoint x="765.9999999999995" y="980"/>
                            <mxPoint x="765.9999999999995" y="605"/>
                        </Array>
                    </mxGeometry>
                </mxCell>
                <mxCell id="298" style="edgeStyle=none;html=1;exitX=1;exitY=0;exitDx=0;exitDy=0;entryX=0.112;entryY=1.001;entryDx=0;entryDy=0;entryPerimeter=0;" parent="220" source="296" target="265" edge="1">
                    <mxGeometry relative="1" as="geometry"/>
                </mxCell>
                <mxCell id="301" style="edgeStyle=none;html=1;entryX=0.75;entryY=0;entryDx=0;entryDy=0;" parent="220" source="299" target="265" edge="1">
                    <mxGeometry relative="1" as="geometry">
                        <Array as="points">
                            <mxPoint x="795.9999999999995" y="1100"/>
                            <mxPoint x="795.9999999999995" y="560"/>
                            <mxPoint x="718.9999999999995" y="560"/>
                        </Array>
                    </mxGeometry>
                </mxCell>
                <mxCell id="305" style="edgeStyle=none;html=1;exitX=0;exitY=1;exitDx=0;exitDy=0;entryX=0.75;entryY=0;entryDx=0;entryDy=0;" parent="220" source="288" target="303" edge="1">
                    <mxGeometry relative="1" as="geometry"/>
                </mxCell>
                <mxCell id="309" value="" style="edgeStyle=none;html=1;" parent="220" source="303" target="308" edge="1">
                    <mxGeometry relative="1" as="geometry"/>
                </mxCell>
                <mxCell id="311" value="websocket" style="edgeStyle=none;html=1;" parent="220" source="308" target="310" edge="1">
                    <mxGeometry relative="1" as="geometry">
                        <Array as="points">
                            <mxPoint x="713.9999999999995" y="1300"/>
                        </Array>
                    </mxGeometry>
                </mxCell>
                <mxCell id="313" value="" style="edgeStyle=none;html=1;" parent="220" source="310" target="312" edge="1">
                    <mxGeometry relative="1" as="geometry"/>
                </mxCell>
                <mxCell id="315" value="" style="edgeStyle=none;html=1;" parent="220" source="312" target="314" edge="1">
                    <mxGeometry relative="1" as="geometry"/>
                </mxCell>
            </root>
        </mxGraphModel>
    </diagram>
</mxfile>